<svg xmlns="http://www.w3.org/2000/svg" width="700" height="700" viewBox="0 0 700 700">
  <g id="Group_240696" data-name="Group 240696" transform="translate(-7318 6697)">
    <rect id="Rectangle_6389" data-name="Rectangle 6389" width="700" height="700" transform="translate(7318 -6697)" fill="none"/>
    <g id="Group_240695" data-name="Group 240695" transform="translate(-316.763 1783.228)">
      <path id="Path_158" data-name="Path 158" d="M70.976,46.882a63.734,63.734,0,0,1,5.039-10.131A73.046,73.046,0,0,1,98.53,13.432C119.437-.506,147.038-4.848,169.507,6.41a65.756,65.756,0,0,1,26.482,22.675c1.394,1.93,3.7,4.717,4.289,7.13C184.14,27.638,178.726,24.1,160.66,20.026c-3.163-.75-6.164-.482-9.863-1.072-5.682-.851-15.176.8-19.512,2.145-16.673,5.36-28.735,15.707-35.811,30.824-7.558,16.189-3.485,38.863,9.167,51.516,12.866,12.867,29.967,16.619,47.819,10.721a34.785,34.785,0,0,0,11.043-6.432c9.113-8.845,11.686-15.547,11.686-28.519,0-24.821-31.9-31.038-44.44-12.276,2.627-.644,3.913-1.876,7.558-1.876,16.453,0,21.175,19.888,11.526,29.913a18.117,18.117,0,0,1-12.438,5.522c-9.543,0-13.777-1.769-20.478-8.368-8.845-8.794-8.47-25.672-3.323-36.239a30.054,30.054,0,0,1,3.645-6.272,37.24,37.24,0,0,1,16.887-12.438c11.311-4.074,26.268-3.645,36.99,1.233,6.648,3,9.435,4.449,14.849,9.219l6,6.326c15.176,20.21,10.936,50.338-6.7,67.921-5.146,5.093-5.957,4.986-10.882,8.523A66.964,66.964,0,0,1,161.3,136.73C123.778,149.5,82.233,134.64,69.367,94.755A85.657,85.657,0,0,1,65.99,72.62,69.785,69.785,0,0,1,70.976,46.882Z" transform="translate(7731.036 -8254)" fill="#004392" fill-rule="evenodd"/>
      <path id="Path_159" data-name="Path 159" d="M163.629,200.585c3.591,3.591,5.63,5.736,12.276,4.449,5.629-1.072,22.087-6.7,22.41-14.042.214-5.682-.054-12.17-.054-17.958V137.113c-3.271-.8-13.777-9.811-26.052-5.308-5.308,1.93-8.309,4.986-11.472,9.811-6.648,10.185-6.432,20.156-6.432,31.9,0,10.346,4.127,21.871,9.327,27.072ZM198.258,77.5H215.3V186.754a24.218,24.218,0,0,0,3.12,12.49,29.735,29.735,0,0,0,3.211,4.776c2.895,3.753,2.895,1.34,3.591,3.971-1.823.536-3.805,2.467-5.414,3.591-1.823,1.34-3.271,2.359-4.986,3.537-1.34-1.986-2.2-2.2-3.913-3.7-2.3-2.037-10.614-10.079-12.17-10.507l-5.576,4.822c-12.276,9.971-25.946,12.384-39.723,3.591a27.183,27.183,0,0,1-10.131-10.185,49.742,49.742,0,0,1-5.361-14.957c-3.323-18.66-2.037-32.544,7.56-48.305a35.709,35.709,0,0,1,9.381-10.025,39.885,39.885,0,0,1,6.218-3.217c7.659-3.055,18.978-1.608,26,1.5,2.251,1.018,3.645,1.662,5.79,2.681a29.438,29.438,0,0,0,5.361,2.681Z" transform="translate(7760.448 -8221.575)" fill="#102856" fill-rule="evenodd"/>
      <path id="Path_160" data-name="Path 160" d="M212.977,77.5H229.06v57.682c2.895-1.93,6.326-5.248,9.7-7.29,9.863-5.844,21.02-10.079,32.539-3.7,10.99,6.058,12.116,17.744,12.116,31.36v56.716H266.424V152.231c0-11.954-3.971-18.439-16.565-18.439a24.589,24.589,0,0,0-12.116,3.913c-1.769,1.072-8.2,5.522-8.2,7.452v67.117H212.977Z" transform="translate(7792.529 -8221.575)" fill="#102856" fill-rule="evenodd"/>
      <path id="Path_161" data-name="Path 161" d="M400.867,133.472c-4.073-8.685-10.882-14.8-21.6-15.761-3.271-.268-2.681-.851-5.04.59a34.655,34.655,0,0,0-13.938,17.315c-.482,1.394-1.018,2.949-1.5,4.61-.482,1.608-.7,3.753-1.233,4.932h45.834v-1.447A33.716,33.716,0,0,0,400.867,133.472Zm-56.77,3.913c7.559-21.551,31.2-35.066,53.929-27.072a27.706,27.706,0,0,1,8.417,5.308c3.109,2.411,1.5,1.447,3.7,3.859a34.427,34.427,0,0,1,7.452,14.313c2.411,9.219,1.286,8.685,2.145,13.938.322,1.715.75,3.537-1.233,3.537H357.071c0,9.167.851,16.565,4.557,23.8a29.5,29.5,0,0,0,12.765,12.33c10.453,5.308,25.672,3.7,36.131-.108a14.856,14.856,0,0,1,4.664-1.5v7.076a12.576,12.576,0,0,0-3.537,1.662c-11.052,6.224-27.4,9.543-40.107,6.112-7.076-1.93-15.6-6.164-19.942-11.74-4.4-5.576-7.344-10.4-9.007-17.476-.376-1.608-.482-2.837-.8-4.4l-.8-11.042A57.723,57.723,0,0,1,344.1,137.386Z" transform="translate(7846.084 -8208.82)" fill="#102856" fill-rule="evenodd"/>
      <path id="Path_162" data-name="Path 162" d="M336.075,134.739c-5.415-15.064-22.783-18.71-26.7-16.673-8.577,4.61-16.671,18.439-16.833,27.179H338.38c-.851-3.859-.426-5.308-2.3-10.507Zm-51.2,52.641c-9.059-11.15-8.9-22.782-8.9-35.059a48.166,48.166,0,0,1,4.289-18.439A45.516,45.516,0,0,1,284.4,126.7c8.685-13.135,29.377-22.677,45.566-17.477,17.588,5.682,24.5,23.261,24.5,42.135H291.582c0,18.71,6.594,35.273,25.892,38.919a55.1,55.1,0,0,0,22.623-1.286l9.645-3.109v7.076c-5.682,1.56-11.9,9.007-34.041,9.007a40.781,40.781,0,0,1-30.822-14.582Z" transform="translate(7818.887 -8208.91)" fill="#102856" fill-rule="evenodd"/>
      <path id="Path_163" data-name="Path 163" d="M37.632,199.521,6.968,126.668c-.911-2.091-1.555-3.537-2.359-5.682C3.163,117.341.851,113.213,0,109.514H17.476c.322,1.286,1.072,3.055,1.608,4.5.644,1.662,1.126,2.837,1.769,4.4,2.3,5.736,22.3,58.379,24.07,59.665.108-1.715,2.251-6.808,3-8.794,1.18-3.055,2.091-5.576,3.271-8.577L70.44,109.514H78L43.636,196.626c-2.091,5.2-1.179,5.093-3.913,5.093C38.382,201.719,38.163,200.7,37.632,199.521Z" transform="translate(7703.427 -8208.184)" fill="#102856" fill-rule="evenodd"/>
      <path id="Path_164" data-name="Path 164" d="M82.484,125.324c6.166-8.631,18.551-17.582,29.33-18.494a87.53,87.53,0,0,0,1.876,13.724c-6.272.16-13.83,3.109-18.28,5.361a56.466,56.466,0,0,0-7.4,4.449c-1.18.851-6,3.753-6,5.308V200h-17V110.643H76.8c.8,3.421,4.234,14.521,4.234,16.558Z" transform="translate(7730.625 -8209.308)" fill="#102856" fill-rule="evenodd"/>
      <path id="Path_165" data-name="Path 165" d="M112.058,109.514h14.208c1.072,0,1.394.322,1.394,1.394v87.963h-17V110.908C110.664,109.836,110.986,109.514,112.058,109.514Z" transform="translate(7749.725 -8208.184)" fill="#102856" fill-rule="evenodd"/>
    </g>
  </g>
</svg>
